# 3ds Max Wavefront OBJ Exporter v0.97b - (c)2007 guruware
# 创建的文件:14.06.2016 20:49:28

mtllib coin2.mtl

#
# object Cylinder001
#

v  10.0063 9.0719 50.0000
v  10.2005 9.0353 49.9794
v  10.1969 9.0353 49.9458
v  10.0028 9.0719 49.9664
v  10.3704 8.9341 49.9613
v  10.3669 8.9341 49.9277
v  10.4957 8.7805 49.9479
v  10.4922 8.7805 49.9143
v  10.5612 8.5931 49.9408
v  10.5576 8.5931 49.9072
v  10.5590 8.3945 49.9408
v  10.5554 8.3945 49.9072
v  10.4894 8.2086 49.9479
v  10.4858 8.2086 49.9143
v  10.3607 8.0578 49.9613
v  10.3572 8.0579 49.9277
v  10.1886 7.9604 49.9794
v  10.1850 7.9605 49.9458
v  9.9937 7.9281 50.0000
v  9.9901 7.9281 49.9664
v  9.7995 7.9647 50.0206
v  9.7960 7.9648 49.9870
v  9.6296 8.0659 50.0387
v  9.6260 8.0660 50.0051
v  9.5043 8.2195 50.0521
v  9.5007 8.2195 50.0185
v  9.4388 8.4069 50.0592
v  9.4353 8.4069 50.0256
v  9.4410 8.6055 50.0592
v  9.4375 8.6056 50.0256
v  9.5106 8.7914 50.0521
v  9.5071 8.7914 50.0185
v  9.6393 8.9422 50.0387
v  9.6357 8.9422 50.0051
v  9.8114 9.0396 50.0206
v  9.8079 9.0396 49.9870
v  10.1934 9.0353 49.9123
v  9.9992 9.0720 49.9328
v  10.3633 8.9341 49.8942
v  10.4886 8.7806 49.8807
v  10.5541 8.5932 49.8736
v  10.5519 8.3946 49.8736
v  10.4823 8.2087 49.8807
v  10.3536 8.0579 49.8942
v  10.1815 7.9605 49.9123
v  9.9866 7.9282 49.9328
v  9.7924 7.9648 49.9534
v  9.6225 8.0660 49.9715
v  9.4972 8.2196 49.9849
v  9.4317 8.4070 49.9921
v  9.4339 8.6056 49.9921
v  9.5035 8.7915 49.9849
v  9.6322 8.9422 49.9715
v  9.8043 9.0396 49.9534
v  10.1898 9.0354 49.8787
v  9.9957 9.0720 49.8992
v  10.3598 8.9342 49.8606
v  10.4850 8.7806 49.8471
v  10.5505 8.5932 49.8400
v  10.5483 8.3946 49.8400
v  10.4787 8.2087 49.8471
v  10.3501 8.0580 49.8606
v  10.1779 7.9606 49.8787
v  9.9830 7.9282 49.8992
v  9.7889 7.9649 49.9198
v  9.6189 8.0661 49.9379
v  9.4936 8.2196 49.9513
v  9.4282 8.4070 49.9585
v  9.4304 8.6056 49.9585
v  9.5000 8.7915 49.9513
v  9.6286 8.9423 49.9379
v  9.8008 9.0397 49.9198
v  10.1863 9.0354 49.8451
v  9.9921 9.0721 49.8657
v  10.3562 8.9342 49.8270
v  10.4815 8.7807 49.8136
v  10.5470 8.5933 49.8064
v  10.5448 8.3946 49.8064
v  10.4752 8.2087 49.8136
v  10.3465 8.0580 49.8270
v  10.1744 7.9606 49.8451
v  9.9795 7.9283 49.8657
v  9.7853 7.9649 49.8862
v  9.6154 8.0661 49.9043
v  9.4901 8.2197 49.9177
v  9.4246 8.4071 49.9249
v  9.4268 8.6057 49.9249
v  9.4964 8.7916 49.9177
v  9.6251 8.9423 49.9043
v  9.7972 9.0397 49.8862
v  10.1827 9.0355 49.8115
v  9.9886 9.0721 49.8321
v  10.3527 8.9342 49.7934
v  10.4779 8.7807 49.7800
v  10.5434 8.5933 49.7728
v  10.5412 8.3947 49.7728
v  10.4716 8.2088 49.7800
v  10.3430 8.0580 49.7934
v  10.1708 7.9606 49.8115
v  9.9759 7.9283 49.8321
v  9.7818 7.9649 49.8526
v  9.6118 8.0661 49.8707
v  9.4865 8.2197 49.8842
v  9.4211 8.4071 49.8913
v  9.4233 8.6057 49.8913
v  9.4929 8.7916 49.8842
v  9.6215 8.9423 49.8707
v  9.7937 9.0398 49.8526
# 108 vertices

vn 0.0111 0.9999 0.0000
vn 0.3505 0.9359 -0.0360
vn 0.6477 0.7589 -0.0676
vn 0.8667 0.4904 -0.0911
vn 0.9812 0.1628 -0.1036
vn 0.9774 -0.1845 -0.1036
vn 0.8556 -0.5095 -0.0911
vn 0.6307 -0.7731 -0.0676
vn 0.3297 -0.9434 -0.0360
vn -0.0111 -0.9999 -0.0000
vn -0.0111 -0.9999 0.0000
vn -0.3505 -0.9359 0.0360
vn -0.6477 -0.7589 0.0676
vn -0.8667 -0.4904 0.0911
vn -0.9812 -0.1628 0.1036
vn -0.9774 0.1845 0.1036
vn -0.8556 0.5095 0.0911
vn -0.6307 0.7731 0.0676
vn -0.3297 0.9434 0.0360
vn 0.0111 0.9999 -0.0000
vn 0.1052 -0.0012 0.9945
vn -0.1052 0.0012 -0.9945
# 22 vertex normals

vt 0.7500 0.0000 1.0000
vt 0.6944 0.0000 1.0000
vt 0.6944 0.2000 1.0000
vt 0.7500 0.2000 1.0000
vt 0.6389 0.0000 1.0000
vt 0.6389 0.2000 1.0000
vt 0.5833 0.0000 1.0000
vt 0.5833 0.2000 1.0000
vt 0.5278 0.0000 1.0000
vt 0.5278 0.2000 1.0000
vt 0.4722 0.0000 1.0000
vt 0.4722 0.2000 1.0000
vt 0.4167 0.0000 1.0000
vt 0.4167 0.2000 1.0000
vt 0.3611 0.0000 1.0000
vt 0.3611 0.2000 1.0000
vt 0.3056 0.0000 1.0000
vt 0.3056 0.2000 1.0000
vt 0.2500 0.0000 1.0000
vt 0.2500 0.2000 1.0000
vt 0.1944 0.0000 1.0000
vt 0.1944 0.2000 1.0000
vt 0.1389 0.0000 1.0000
vt 0.1389 0.2000 1.0000
vt 0.0833 0.0000 1.0000
vt 0.0833 0.2000 1.0000
vt 0.0278 0.0000 1.0000
vt 0.0278 0.2000 1.0000
vt -0.0278 0.0000 1.0000
vt -0.0278 0.2000 1.0000
vt 0.9722 0.0000 1.0000
vt 0.9167 0.0000 1.0000
vt 0.9167 0.2000 1.0000
vt 0.9722 0.2000 1.0000
vt 0.8611 0.0000 1.0000
vt 0.8611 0.2000 1.0000
vt 0.8056 0.0000 1.0000
vt 0.8056 0.2000 1.0000
vt 0.6944 0.4000 1.0000
vt 0.7500 0.4000 1.0000
vt 0.6389 0.4000 1.0000
vt 0.5833 0.4000 1.0000
vt 0.5278 0.4000 1.0000
vt 0.4722 0.4000 1.0000
vt 0.4167 0.4000 1.0000
vt 0.3611 0.4000 1.0000
vt 0.3056 0.4000 1.0000
vt 0.2500 0.4000 1.0000
vt 0.1944 0.4000 1.0000
vt 0.1389 0.4000 1.0000
vt 0.0833 0.4000 1.0000
vt 0.0278 0.4000 1.0000
vt -0.0278 0.4000 1.0000
vt 0.9167 0.4000 1.0000
vt 0.9722 0.4000 1.0000
vt 0.8611 0.4000 1.0000
vt 0.8056 0.4000 1.0000
vt 0.6944 0.6000 1.0000
vt 0.7500 0.6000 1.0000
vt 0.6389 0.6000 1.0000
vt 0.5833 0.6000 1.0000
vt 0.5278 0.6000 1.0000
vt 0.4722 0.6000 1.0000
vt 0.4167 0.6000 1.0000
vt 0.3611 0.6000 1.0000
vt 0.3056 0.6000 1.0000
vt 0.2500 0.6000 1.0000
vt 0.1944 0.6000 1.0000
vt 0.1389 0.6000 1.0000
vt 0.0833 0.6000 1.0000
vt 0.0278 0.6000 1.0000
vt -0.0278 0.6000 1.0000
vt 0.9167 0.6000 1.0000
vt 0.9722 0.6000 1.0000
vt 0.8611 0.6000 1.0000
vt 0.8056 0.6000 1.0000
vt 0.6944 0.8000 1.0000
vt 0.7500 0.8000 1.0000
vt 0.6389 0.8000 1.0000
vt 0.5833 0.8000 1.0000
vt 0.5278 0.8000 1.0000
vt 0.4722 0.8000 1.0000
vt 0.4167 0.8000 1.0000
vt 0.3611 0.8000 1.0000
vt 0.3056 0.8000 1.0000
vt 0.2500 0.8000 1.0000
vt 0.1944 0.8000 1.0000
vt 0.1389 0.8000 1.0000
vt 0.0833 0.8000 1.0000
vt 0.0278 0.8000 1.0000
vt -0.0278 0.8000 1.0000
vt 0.9167 0.8000 1.0000
vt 0.9722 0.8000 1.0000
vt 0.8611 0.8000 1.0000
vt 0.8056 0.8000 1.0000
vt 0.6944 1.0000 1.0000
vt 0.7500 1.0000 1.0000
vt 0.6389 1.0000 1.0000
vt 0.5833 1.0000 1.0000
vt 0.5278 1.0000 1.0000
vt 0.4722 1.0000 1.0000
vt 0.4167 1.0000 1.0000
vt 0.3611 1.0000 1.0000
vt 0.3056 1.0000 1.0000
vt 0.2500 1.0000 1.0000
vt 0.1944 1.0000 1.0000
vt 0.1389 1.0000 1.0000
vt 0.0833 1.0000 1.0000
vt 0.0278 1.0000 1.0000
vt -0.0278 1.0000 1.0000
vt 0.9167 1.0000 1.0000
vt 0.9722 1.0000 1.0000
vt 0.8611 1.0000 1.0000
vt 0.8056 1.0000 1.0000
vt 0.1786 0.8830 -0.2500
vt 0.0670 0.7500 -0.2500
vt 0.0076 0.5868 -0.2500
vt 0.0076 0.4132 -0.2500
vt 0.0670 0.2500 -0.2500
vt 0.1786 0.1170 -0.2500
vt 0.3290 0.0302 -0.2500
vt 0.5000 0.0000 -0.2500
vt 0.6710 0.0302 -0.2500
vt 0.8214 0.1170 -0.2500
vt 0.9330 0.2500 -0.2500
vt 0.9924 0.4132 -0.2500
vt 0.9924 0.5868 -0.2500
vt 0.9330 0.7500 -0.2500
vt 0.8214 0.8830 -0.2500
vt 0.6710 0.9698 -0.2500
vt 0.5000 1.0000 -0.2500
vt 0.3290 0.9698 -0.2500
vt 0.6710 0.9698 0.2500
vt 0.8214 0.8830 0.2500
vt 0.9330 0.7500 0.2500
vt 0.9924 0.5868 0.2500
vt 0.9924 0.4132 0.2500
vt 0.9330 0.2500 0.2500
vt 0.8214 0.1170 0.2500
vt 0.6710 0.0302 0.2500
vt 0.5000 0.0000 0.2500
vt 0.3290 0.0302 0.2500
vt 0.1786 0.1170 0.2500
vt 0.0670 0.2500 0.2500
vt 0.0076 0.4132 0.2500
vt 0.0076 0.5868 0.2500
vt 0.0670 0.7500 0.2500
vt 0.1786 0.8830 0.2500
vt 0.3290 0.9698 0.2500
vt 0.5000 1.0000 0.2500
# 150 texture coords

g Cylinder001
usemtl Material__27
s 8
f 1/1/1 2/2/2 3/3/2 
f 3/3/2 4/4/1 1/1/1 
f 2/2/2 5/5/3 6/6/3 
f 6/6/3 3/3/2 2/2/2 
f 5/5/3 7/7/4 8/8/4 
f 8/8/4 6/6/3 5/5/3 
f 7/7/4 9/9/5 10/10/5 
f 10/10/5 8/8/4 7/7/4 
f 9/9/5 11/11/6 12/12/6 
f 12/12/6 10/10/5 9/9/5 
f 11/11/6 13/13/7 14/14/7 
f 14/14/7 12/12/6 11/11/6 
f 13/13/7 15/15/8 16/16/8 
f 16/16/8 14/14/7 13/13/7 
f 15/15/8 17/17/9 18/18/9 
f 18/18/9 16/16/8 15/15/8 
f 17/17/9 19/19/10 20/20/11 
f 20/20/11 18/18/9 17/17/9 
f 19/19/10 21/21/12 22/22/12 
f 22/22/12 20/20/11 19/19/10 
f 21/21/12 23/23/13 24/24/13 
f 24/24/13 22/22/12 21/21/12 
f 23/23/13 25/25/14 26/26/14 
f 26/26/14 24/24/13 23/23/13 
f 25/25/14 27/27/15 28/28/15 
f 28/28/15 26/26/14 25/25/14 
f 27/27/15 29/29/16 30/30/16 
f 30/30/16 28/28/15 27/27/15 
f 29/31/16 31/32/17 32/33/17 
f 32/33/17 30/34/16 29/31/16 
f 31/32/17 33/35/18 34/36/18 
f 34/36/18 32/33/17 31/32/17 
f 33/35/18 35/37/19 36/38/19 
f 36/38/19 34/36/18 33/35/18 
f 35/37/19 1/1/1 4/4/1 
f 4/4/1 36/38/19 35/37/19 
f 4/4/1 3/3/2 37/39/2 
f 37/39/2 38/40/1 4/4/1 
f 3/3/2 6/6/3 39/41/3 
f 39/41/3 37/39/2 3/3/2 
f 6/6/3 8/8/4 40/42/4 
f 40/42/4 39/41/3 6/6/3 
f 8/8/4 10/10/5 41/43/5 
f 41/43/5 40/42/4 8/8/4 
f 10/10/5 12/12/6 42/44/6 
f 42/44/6 41/43/5 10/10/5 
f 12/12/6 14/14/7 43/45/7 
f 43/45/7 42/44/6 12/12/6 
f 14/14/7 16/16/8 44/46/8 
f 44/46/8 43/45/7 14/14/7 
f 16/16/8 18/18/9 45/47/9 
f 45/47/9 44/46/8 16/16/8 
f 18/18/9 20/20/11 46/48/10 
f 46/48/10 45/47/9 18/18/9 
f 20/20/11 22/22/12 47/49/12 
f 47/49/12 46/48/10 20/20/11 
f 22/22/12 24/24/13 48/50/13 
f 48/50/13 47/49/12 22/22/12 
f 24/24/13 26/26/14 49/51/14 
f 49/51/14 48/50/13 24/24/13 
f 26/26/14 28/28/15 50/52/15 
f 50/52/15 49/51/14 26/26/14 
f 28/28/15 30/30/16 51/53/16 
f 51/53/16 50/52/15 28/28/15 
f 30/34/16 32/33/17 52/54/17 
f 52/54/17 51/55/16 30/34/16 
f 32/33/17 34/36/18 53/56/18 
f 53/56/18 52/54/17 32/33/17 
f 34/36/18 36/38/19 54/57/19 
f 54/57/19 53/56/18 34/36/18 
f 36/38/19 4/4/1 38/40/1 
f 38/40/1 54/57/19 36/38/19 
f 38/40/1 37/39/2 55/58/2 
f 55/58/2 56/59/20 38/40/1 
f 37/39/2 39/41/3 57/60/3 
f 57/60/3 55/58/2 37/39/2 
f 39/41/3 40/42/4 58/61/4 
f 58/61/4 57/60/3 39/41/3 
f 40/42/4 41/43/5 59/62/5 
f 59/62/5 58/61/4 40/42/4 
f 41/43/5 42/44/6 60/63/6 
f 60/63/6 59/62/5 41/43/5 
f 42/44/6 43/45/7 61/64/7 
f 61/64/7 60/63/6 42/44/6 
f 43/45/7 44/46/8 62/65/8 
f 62/65/8 61/64/7 43/45/7 
f 44/46/8 45/47/9 63/66/9 
f 63/66/9 62/65/8 44/46/8 
f 45/47/9 46/48/10 64/67/10 
f 64/67/10 63/66/9 45/47/9 
f 46/48/10 47/49/12 65/68/12 
f 65/68/12 64/67/10 46/48/10 
f 47/49/12 48/50/13 66/69/13 
f 66/69/13 65/68/12 47/49/12 
f 48/50/13 49/51/14 67/70/14 
f 67/70/14 66/69/13 48/50/13 
f 49/51/14 50/52/15 68/71/15 
f 68/71/15 67/70/14 49/51/14 
f 50/52/15 51/53/16 69/72/16 
f 69/72/16 68/71/15 50/52/15 
f 51/55/16 52/54/17 70/73/17 
f 70/73/17 69/74/16 51/55/16 
f 52/54/17 53/56/18 71/75/18 
f 71/75/18 70/73/17 52/54/17 
f 53/56/18 54/57/19 72/76/19 
f 72/76/19 71/75/18 53/56/18 
f 54/57/19 38/40/1 56/59/20 
f 56/59/20 72/76/19 54/57/19 
f 56/59/20 55/58/2 73/77/2 
f 73/77/2 74/78/1 56/59/20 
f 55/58/2 57/60/3 75/79/3 
f 75/79/3 73/77/2 55/58/2 
f 57/60/3 58/61/4 76/80/4 
f 76/80/4 75/79/3 57/60/3 
f 58/61/4 59/62/5 77/81/5 
f 77/81/5 76/80/4 58/61/4 
f 59/62/5 60/63/6 78/82/6 
f 78/82/6 77/81/5 59/62/5 
f 60/63/6 61/64/7 79/83/7 
f 79/83/7 78/82/6 60/63/6 
f 61/64/7 62/65/8 80/84/8 
f 80/84/8 79/83/7 61/64/7 
f 62/65/8 63/66/9 81/85/9 
f 81/85/9 80/84/8 62/65/8 
f 63/66/9 64/67/10 82/86/10 
f 82/86/10 81/85/9 63/66/9 
f 64/67/10 65/68/12 83/87/12 
f 83/87/12 82/86/10 64/67/10 
f 65/68/12 66/69/13 84/88/13 
f 84/88/13 83/87/12 65/68/12 
f 66/69/13 67/70/14 85/89/14 
f 85/89/14 84/88/13 66/69/13 
f 67/70/14 68/71/15 86/90/15 
f 86/90/15 85/89/14 67/70/14 
f 68/71/15 69/72/16 87/91/16 
f 87/91/16 86/90/15 68/71/15 
f 69/74/16 70/73/17 88/92/17 
f 88/92/17 87/93/16 69/74/16 
f 70/73/17 71/75/18 89/94/18 
f 89/94/18 88/92/17 70/73/17 
f 71/75/18 72/76/19 90/95/19 
f 90/95/19 89/94/18 71/75/18 
f 72/76/19 56/59/20 74/78/1 
f 74/78/1 90/95/19 72/76/19 
f 74/78/1 73/77/2 91/96/2 
f 91/96/2 92/97/1 74/78/1 
f 73/77/2 75/79/3 93/98/3 
f 93/98/3 91/96/2 73/77/2 
f 75/79/3 76/80/4 94/99/4 
f 94/99/4 93/98/3 75/79/3 
f 76/80/4 77/81/5 95/100/5 
f 95/100/5 94/99/4 76/80/4 
f 77/81/5 78/82/6 96/101/6 
f 96/101/6 95/100/5 77/81/5 
f 78/82/6 79/83/7 97/102/7 
f 97/102/7 96/101/6 78/82/6 
f 79/83/7 80/84/8 98/103/8 
f 98/103/8 97/102/7 79/83/7 
f 80/84/8 81/85/9 99/104/9 
f 99/104/9 98/103/8 80/84/8 
f 81/85/9 82/86/10 100/105/10 
f 100/105/10 99/104/9 81/85/9 
f 82/86/10 83/87/12 101/106/12 
f 101/106/12 100/105/10 82/86/10 
f 83/87/12 84/88/13 102/107/13 
f 102/107/13 101/106/12 83/87/12 
f 84/88/13 85/89/14 103/108/14 
f 103/108/14 102/107/13 84/88/13 
f 85/89/14 86/90/15 104/109/15 
f 104/109/15 103/108/14 85/89/14 
f 86/90/15 87/91/16 105/110/16 
f 105/110/16 104/109/15 86/90/15 
f 87/93/16 88/92/17 106/111/17 
f 106/111/17 105/112/16 87/93/16 
f 88/92/17 89/94/18 107/113/18 
f 107/113/18 106/111/17 88/92/17 
f 89/94/18 90/95/19 108/114/19 
f 108/114/19 107/113/18 89/94/18 
f 90/95/19 74/78/1 92/97/1 
f 92/97/1 108/114/19 90/95/19 
s 1
f 33/115/21 31/116/21 29/117/21 
f 29/117/21 27/118/21 25/119/21 
f 25/119/21 23/120/21 21/121/21 
f 29/117/21 25/119/21 21/121/21 
f 21/121/21 19/122/21 17/123/21 
f 17/123/21 15/124/21 13/125/21 
f 21/121/21 17/123/21 13/125/21 
f 13/125/21 11/126/21 9/127/21 
f 9/127/21 7/128/21 5/129/21 
f 13/125/21 9/127/21 5/129/21 
f 21/121/21 13/125/21 5/129/21 
f 29/117/21 21/121/21 5/129/21 
f 5/129/21 2/130/21 1/131/21 
f 29/117/21 5/129/21 1/131/21 
f 33/115/21 29/117/21 1/131/21 
f 35/132/21 33/115/21 1/131/21 
f 91/133/22 93/134/22 94/135/22 
f 94/135/22 95/136/22 96/137/22 
f 96/137/22 97/138/22 98/139/22 
f 94/135/22 96/137/22 98/139/22 
f 98/139/22 99/140/22 100/141/22 
f 100/141/22 101/142/22 102/143/22 
f 98/139/22 100/141/22 102/143/22 
f 102/143/22 103/144/22 104/145/22 
f 104/145/22 105/146/22 106/147/22 
f 102/143/22 104/145/22 106/147/22 
f 98/139/22 102/143/22 106/147/22 
f 94/135/22 98/139/22 106/147/22 
f 106/147/22 107/148/22 108/149/22 
f 94/135/22 106/147/22 108/149/22 
f 91/133/22 94/135/22 108/149/22 
f 92/150/22 91/133/22 108/149/22 
# 212 faces

